<svg width="16" height="16" viewBox="0 0 16 16" fill="none" xmlns="http://www.w3.org/2000/svg">
<path d="M6.45 8.26348L7.88463 9.69808C8.02949 9.85577 8.21474 9.93463 8.44038 9.93463C8.66603 9.93463 8.85769 9.85577 9.01538 9.69808L12.5 6.2327V8.025C12.5 8.15448 12.5478 8.26603 12.6433 8.35963C12.7388 8.45321 12.8577 8.5 13 8.5C13.1295 8.5 13.2452 8.45224 13.3471 8.35673C13.449 8.26123 13.5 8.14232 13.5 8V5.3077C13.5 5.08847 13.4202 4.89904 13.2606 4.73943C13.101 4.57981 12.9115 4.5 12.6923 4.5H9.975C9.84552 4.5 9.73398 4.55096 9.64038 4.65287C9.54679 4.75481 9.5 4.87052 9.5 5C9.5 5.14232 9.54776 5.26122 9.64328 5.35672C9.73878 5.45224 9.85768 5.5 10 5.5H11.7673L8.45 8.86153L7.01537 7.42693C6.85769 7.26538 6.66602 7.1846 6.44037 7.1846C6.21474 7.1846 6.02949 7.26538 5.88463 7.42693L3.04615 10.2462C2.94872 10.3526 2.9 10.4737 2.9 10.6096C2.9 10.7455 2.94872 10.8603 3.04615 10.9538C3.15257 11.0641 3.27373 11.1192 3.40963 11.1192C3.54553 11.1192 3.66027 11.0641 3.75385 10.9538L6.45 8.26348ZM1.61538 16C1.15513 16 0.770833 15.8458 0.4625 15.5375C0.154167 15.2292 0 14.8449 0 14.3846V1.61537C0 1.15512 0.154167 0.770833 0.4625 0.4625C0.770833 0.154167 1.15513 0 1.61538 0H14.3846C14.8449 0 15.2292 0.154167 15.5375 0.4625C15.8458 0.770833 16 1.15512 16 1.61537V14.3846C16 14.8449 15.8458 15.2292 15.5375 15.5375C15.2292 15.8458 14.8449 16 14.3846 16H1.61538Z" fill="#FFFAF4"/>
</svg>
